<?xml version="1.0"?>
<svg version="1.1" xmlns="http://www.w3.org/2000/svg" width="400px" height="200px" style="border: dashed 2px #aaa"><path fill="#" d="M37.103515625,105.564453125l7.9296875,0l0,10.36328125q-1.927734375,0.62890625-3.6298828125,0.8818359375t-3.4794921875,0.2529296875q-4.525390625,0-6.9111328125-2.6591796875t-2.3857421875-7.6357421875q0-4.83984375,2.7685546875-7.546875t7.6767578125-2.70703125q3.076171875,0,5.93359375,1.23046875l-1.408203125,3.390625q-2.1875-1.09375-4.552734375-1.09375q-2.748046875,0-4.40234375,1.845703125t-1.654296875,4.962890625q0,3.25390625,1.3330078125,4.9697265625t3.8759765625,1.7158203125q1.326171875,0,2.693359375-0.2734375l0-4.169921875l-3.787109375,0l0-3.52734375z M57.71755859375,104.18359375q-1.326171875,0-2.078125,0.8408203125t-0.861328125,2.3857421875l5.8515625,0q-0.02734375-1.544921875-0.806640625-2.3857421875t-2.10546875-0.8408203125z M58.30544921875,117.0625q-3.69140625,0-5.76953125-2.037109375t-2.078125-5.76953125q0-3.841796875,1.9208984375-5.9404296875t5.3115234375-2.0986328125q3.240234375,0,5.044921875,1.845703125t1.8046875,5.099609375l0,2.0234375l-9.857421875,0q0.068359375,1.77734375,1.052734375,2.775390625t2.76171875,0.998046875q1.380859375,0,2.611328125-0.287109375t2.5703125-0.916015625l0,3.2265625q-1.09375,0.546875-2.337890625,0.8134765625t-3.03515625,0.2666015625z M78.3589453125,101.216796875q2.70703125,0,4.23828125,2.1123046875t1.53125,5.7900390625q0,3.787109375-1.5791015625,5.865234375t-4.2998046875,2.078125q-2.693359375,0-4.224609375-1.955078125l-0.287109375,0l-0.697265625,1.681640625l-3.185546875,0l0-21.2734375l4.169921875,0l0,4.94921875q0,0.943359375-0.1640625,3.021484375l0.1640625,0q1.462890625-2.26953125,4.333984375-2.26953125z M77.0191015625,104.552734375q-1.544921875,0-2.255859375,0.9501953125t-0.73828125,3.1376953125l0,0.451171875q0,2.4609375,0.7314453125,3.52734375t2.3173828125,1.06640625q1.28515625,0,2.0439453125-1.1826171875t0.7587890625-3.4384765625t-0.765625-3.3837890625t-2.091796875-1.1279296875z M89.32064453125,97.552734375q0-2.037109375,2.26953125-2.037109375t2.26953125,2.037109375q0,0.970703125-0.5673828125,1.5107421875t-1.7021484375,0.5400390625q-2.26953125,0-2.26953125-2.05078125z M93.66830078125,116.7890625l-4.169921875,0l0-15.28515625l4.169921875,0l0,15.28515625z M114.077265625,116.7890625l-4.169921875,0l0-8.927734375q0-1.654296875-0.587890625-2.4814453125t-1.873046875-0.8271484375q-1.75,0-2.529296875,1.1689453125t-0.779296875,3.8759765625l0,7.19140625l-4.169921875,0l0-15.28515625l3.185546875,0l0.560546875,1.955078125l0.232421875,0q0.697265625-1.107421875,1.9208984375-1.6748046875t2.7822265625-0.5673828125q2.666015625,0,4.046875,1.4423828125t1.380859375,4.1630859375l0,9.966796875z M123.93154296875,116.7890625l-5.82421875-15.28515625l4.361328125,0l2.953125,8.708984375q0.4921875,1.654296875,0.615234375,3.130859375l0.08203125,0q0.068359375-1.3125,0.615234375-3.130859375l2.939453125-8.708984375l4.361328125,0l-5.82421875,15.28515625l-4.279296875,0z M141.4694140625,109.119140625q0,2.26953125,0.7451171875,3.431640625t2.4267578125,1.162109375q1.66796875,0,2.3994140625-1.1552734375t0.7314453125-3.4384765625q0-2.26953125-0.73828125-3.404296875t-2.419921875-1.134765625q-1.66796875,0-2.40625,1.1279296875t-0.73828125,3.4111328125z M152.0377734375,109.119140625q0,3.732421875-1.96875,5.837890625t-5.482421875,2.10546875q-2.201171875,0-3.8828125-0.9638671875t-2.583984375-2.7685546875t-0.90234375-4.2109375q0-3.74609375,1.955078125-5.82421875t5.49609375-2.078125q2.201171875,0,3.8828125,0.95703125t2.583984375,2.748046875t0.90234375,4.197265625z"/><path fill="#" d=""/></svg>
