<?xml version="1.0"?>
<svg version="1.1" xmlns="http://www.w3.org/2000/svg" width="200px" height="100px" style=""><path fill="#ffffff" d="M65.344,53.164l-0.056,0.896q0,1.82,1.96,1.82q1.624,0,3.276-1.12t1.652-2.268t-1.344-1.932q-0.896-0.532-2.8-0.532q-2.828,0-6.314,1.344t-6.538,4.312q-4.004,3.92-4.004,7.196q0,1.932,1.47,3.108t3.85,1.176q3.304,0,7.672-2.492q3.64-2.044,5.46-4.34l0.812-1.204q-0.504,0-4.172,0.294t-4.2,0.42t-0.868,0.126q-0.924,0-0.924-0.448q0-0.7,2.128-1.162t7.196-0.462t6.692,0.392q0.252,0.056,0.252,0.14q0,0.308-1.932,0.448q-2.408,0.196-2.464,0.196q-2.856,3.752-7.392,11.592q-0.252,0.448-0.49,0.448t-0.238-0.364q0-0.98,1.568-3.78l1.96-3.668q-1.792,1.54-4.564,2.884q-3.612,1.708-6.818,1.708t-4.9-1.386t-1.694-3.71q0-4.284,5.18-8.708q2.604-2.24,6.3-3.724t6.482-1.484t4.27,1.092q1.148,0.896,1.148,2.016q0,1.596-1.974,3.066t-3.906,1.47q-2.604,0-2.604-2.996q0-1.148,0.476-1.148q0.392,0,0.392,0.784z M75.84876,67.164q-0.308,0-0.56-0.084q-1.792-0.504-1.792-2.016q0-1.96,2.464-4.536t4.424-2.576q0.644,0,1.05,0.35t0.406,0.854q0,1.568-2.366,2.996t-3.85,1.428q-0.224,0-0.392-0.056q-0.42,0.756-0.42,1.596q0,1.456,1.386,1.456t3.598-1.876q1.708-1.372,2.912-2.912q0.252-0.336,0.434-0.336t0.182,0.168t-0.224,0.476q-1.512,1.988-3.64,3.528t-3.612,1.54z M81.14076,59.1q0-0.336-0.714-0.336t-2.03,1.092q-1.764,1.456-2.744,3.052q0.168,0.056,0.364,0.056q1.064,0,2.842-1.134t2.226-2.478q0.056-0.14,0.056-0.252z M87.36152,57.952q0.756,0,0.756,0.588q0,0.168-0.084,0.336q-2.52,3.5-3.024,5.292q6.524-6.524,7.924-6.524q0.14-0.028,0.252-0.028q0.784,0,0.784,0.7q0,0.14-0.056,0.28t-1.12,1.512q-1.232,1.456-2.086,2.8t-0.854,2.24t0.392,0.896q1.232,0,4.284-3.388q0.056-0.056,0.196-0.252q0.42-0.504,0.504-0.504t0.084,0.28t-0.392,0.728q-3.472,3.948-4.928,3.948q-1.372,0-1.372-1.512t1.12-3.472l1.792-2.912q-1.904,1.4-3.388,3.066t-2.702,3.234t-1.414,1.568q-0.42,0-0.658-0.35t-0.238-0.868t0.364-1.386t0.924-2.1l-1.68,1.764q-0.616,0.616-0.77,0.616t-0.154-0.182t0.224-0.406q1.036-1.036,1.792-1.988q0.728-0.952,2.996-3.64q0.252-0.336,0.532-0.336z M102.24828,55.642q0.378,0.266,0.378,0.63t-0.35,0.63t-0.77,0.266t-0.77-0.308t-0.35-0.7q0-0.784,1.064-0.784q0.42,0,0.798,0.266z M96.38228,67.108q-1.428,0-1.428-1.848q0-1.512,1.652-4.186t2.66-2.702q0.28,0,0.63,0.224t0.35,0.448q-0.14,0.196-0.336,0.434t-0.42,0.518t-0.616,0.798t-0.756,0.994q-2.1,2.716-2.1,3.738t0.7,1.022q0.588,0,1.596-0.644q2.352-1.456,3.724-3.192q0.504-0.644,0.686-0.644t0.182,0.224t-0.644,0.896t-1.022,1.064t-0.518,0.518t-0.518,0.476t-0.574,0.49t-0.56,0.42t-0.644,0.406t-0.644,0.294q-0.588,0.252-1.4,0.252z M107.44704,57.952q0.756,0,0.756,0.588q0,0.168-0.084,0.336q-2.52,3.5-3.024,5.292q6.524-6.524,7.924-6.524q0.14-0.028,0.252-0.028q0.784,0,0.784,0.7q0,0.14-0.056,0.28t-1.12,1.512q-1.232,1.456-2.086,2.8t-0.854,2.24t0.392,0.896q1.232,0,4.284-3.388q0.056-0.056,0.196-0.252q0.42-0.504,0.504-0.504t0.084,0.28t-0.392,0.728q-3.472,3.948-4.928,3.948q-1.372,0-1.372-1.512t1.12-3.472l1.792-2.912q-1.904,1.4-3.388,3.066t-2.702,3.234t-1.414,1.568q-0.42,0-0.658-0.35t-0.238-0.868t0.364-1.386t0.924-2.1l-1.68,1.764q-0.616,0.616-0.77,0.616t-0.154-0.182t0.224-0.406q1.036-1.036,1.792-1.988q0.728-0.952,2.996-3.64q0.252-0.336,0.532-0.336z M123.0478,55.796q0.84,0,1.428,0.56t0.588,1.568q0,2.212-3.668,5.544q-3.108,2.8-5.012,3.416q-0.308,0-0.812-0.336t-0.504-0.616q0-0.616,1.344-4.172t1.848-3.976q0.112-0.112,0.364-0.112t0.532,0.266t0.308,0.63q0,0.028-1.386,3.248t-1.302,3.836q1.204-0.364,4.298-2.94t3.094-4.62q0-1.232-1.232-1.792q-0.196-0.084-0.196-0.252q0-0.252,0.308-0.252z M132.43256,60.864q0,0.98-1.876,3.276q-2.212,2.716-3.78,2.716l-0.448,0q-0.728,0-1.148-0.756q-0.336-0.532-0.336-1.176q0-1.68,2.45-4.718t3.962-3.038q1.428,0,1.428,1.512q0,0.392-0.14,1.008q0.028,0.084,0.532,0.084t1.54-0.532q-0.028,0.476-2.212,1.372q0.028,0.112,0.028,0.252z M130.61256,59.408q-0.952,0-2.702,2.24t-1.75,3.304t0.672,1.064q1.204,0,3.052-2.184t1.848-3.136q-0.448-0.252-1.12-1.288z"/><path fill="#ffffff" d=""/></svg>
